<?xml version="1.0" encoding="UTF-8" standalone="no"?>
<!-- Created with Inkscape (http://www.inkscape.org/) -->

<svg
   version="1.1"
   id="svg2"
   width="64"
   height="64"
   viewBox="0 0 64 64"
   sodipodi:docname="blupi.svg"
   inkscape:version="1.2.2 (b0a8486541, 2022-12-01)"
   xml:space="preserve"
   xmlns:inkscape="http://www.inkscape.org/namespaces/inkscape"
   xmlns:sodipodi="http://sodipodi.sourceforge.net/DTD/sodipodi-0.dtd"
   xmlns="http://www.w3.org/2000/svg"
   xmlns:svg="http://www.w3.org/2000/svg"
   xmlns:rdf="http://www.w3.org/1999/02/22-rdf-syntax-ns#"
   xmlns:cc="http://creativecommons.org/ns#"
   xmlns:dc="http://purl.org/dc/elements/1.1/"><metadata
     id="metadata8"><rdf:RDF><cc:Work
         rdf:about=""><dc:format>image/svg+xml</dc:format><dc:type
           rdf:resource="http://purl.org/dc/dcmitype/StillImage" /></cc:Work></rdf:RDF></metadata><defs
     id="defs6" /><sodipodi:namedview
     pagecolor="#ffffff"
     bordercolor="#666666"
     borderopacity="1"
     objecttolerance="10"
     gridtolerance="10"
     guidetolerance="10"
     inkscape:pageopacity="0"
     inkscape:pageshadow="2"
     inkscape:window-width="1920"
     inkscape:window-height="1051"
     id="namedview4"
     showgrid="true"
     inkscape:zoom="8"
     inkscape:cx="20"
     inkscape:cy="18.0625"
     inkscape:window-x="0"
     inkscape:window-y="180"
     inkscape:window-maximized="1"
     inkscape:current-layer="g544"
     inkscape:showpageshadow="0"
     inkscape:pagecheckerboard="0"
     inkscape:deskcolor="#d1d1d1"><inkscape:grid
       type="xygrid"
       id="grid37795"
       empspacing="1"
       dotted="false" /></sodipodi:namedview><g
     inkscape:groupmode="layer"
     id="layer2"
     inkscape:label="Layer 2"
     transform="translate(0,-64)"
     style="opacity:1"><g
       id="g544"
       transform="translate(64)"><path
         style="fill:#dfa0fe;stroke-width:0.125"
         d="M -16,106.5 V 106 h 1.5 1.5 v 0.5 0.5 h -1.5 -1.5 z m 0,-2 V 104 h 0.5 0.5 V 100.5 97 H -15.5 -16 V 96.5 96 h 0.5 0.5 V 95.5 95 H -15.5 -16 V 94 93 H -16.5 -17 V 92.5 92 H -17.5 -18 V 91.5 91 H -18.5 -19 V 90.5 90 H -19.5 -20 V 89.5 89 h -0.5 -0.5 v -1 -1 h 0.5 0.5 V 86.5 86 H -20.5 -21 V 85 84 H -21.5 -22 V 82 80 H -22.5 -23 V 79.5 79 H -23.5 -24 V 78 77 H -24.5 -25 V 76.5 76 H -25.5 -26 V 75.5 75 h 0.5 0.5 V 74.5 74 h 0.5 0.5 V 73.5 73 H -24.5 -25 V 72.5 72 h 0.5 0.5 V 71.5 71 h 0.5 0.5 V 70.5 70 h 0.5 0.5 V 69.5 69 h 0.5 0.5 V 68.5 68 h 0.5 0.5 v 0.5 0.5 h 0.5 0.5 V 68.5 68 h 0.5 0.5 V 67.5 67 h 0.5 0.5 v 0.5 0.5 h 0.5 0.5 V 67.5 67 h 0.5 0.5 v 0.5 0.5 h 0.5 0.5 V 67.5 67 h 0.5 0.5 v 0.5 0.5 h 0.5 0.5 V 67.5 67 h 0.5 0.5 v 0.5 0.5 h 0.5 0.5 V 67.5 67 H -9.5 -9 V 67.5 68 H -8.5 -8 V 67.5 67 H -7.5 -7 V 67.5 68 H -6.5 -6 V 68.5 69 H -5.5 -5 V 69.5 70 H -4.5 -4 V 70.5 71 H -3.5 -3 V 71.5 72 H -3.5 -4 v 1 1 h 0.5 0.5 v 1 1 H -2.5 -2 V 76.5 77 H -2.5 -3 V 77.5 78 H -2.5 -2 V 78.5 79 H -2.5 -3 V 79.5 80 H -2.5 -2 V 80.5 81 H -2.5 -3 V 81.5 82 H -3.5 -4 V 82.5 83 H -3.5 -3 V 83.5 84 H -3.5 -4 V 84.5 85 H -4.5 -5 V 85.5 86 H -4.5 -4 V 86.5 87 H -4.5 -5 V 87.5 88 H -5.5 -6 V 88.5 89 H -6.5 -7 V 89.5 90 H -7.5 -8 V 90.5 91 H -8.5 -9 V 91.5 92 H -9.5 -10 v 0.5 0.5 h -0.5 -0.5 v 0.5 0.5 h -0.5 -0.5 v 0.5 0.5 h -0.5 -0.5 v 1 1 h -0.5 -0.5 v 3.5 3.5 h 0.5 0.5 v 0.5 0.5 h -0.5 -0.5 v -0.5 -0.5 h -0.5 -0.5 v 0.5 0.5 h -0.5 -0.5 z m 3,-10 V 94 h 0.5 0.5 V 93.5 93 h 0.5 0.5 V 92.5 92 h 0.5 0.5 V 91.5 91 H -9.5 -9 V 90.5 90 H -8.5 -8 V 89.5 89 H -7.5 -7 V 88.5 88 H -6.5 -6 V 87.5 87 H -5.5 -5 V 86.5 86 H -5.5 -6 V 86.5 87 H -6.5 -7 V 87.5 88 H -7.5 -8 V 88.5 89 H -8.5 -9 V 89.5 90 H -9.5 -10 v 0.5 0.5 h -0.5 -0.5 v 0.5 0.5 h -0.5 -0.5 v 0.5 0.5 h -0.5 -0.5 v 0.5 0.5 h -0.5 -0.5 v 0.5 0.5 h 0.5 0.5 z m -3,-4 V 90 h -0.5 -0.5 v 0.5 0.5 h 0.5 0.5 z m -2,-2 V 88 h -0.5 -0.5 v 0.5 0.5 h 0.5 0.5 z m 10,-2 V 86 H -8.5 -9 v 0.5 0.5 h 0.5 0.5 z m 2,-2 V 84 H -6.5 -7 v 0.5 0.5 h 0.5 0.5 z m -14,-1 V 83 h -0.5 -0.5 v 0.5 0.5 h 0.5 0.5 z m 16,0 V 83 H -4.5 -5 v 0.5 0.5 h 0.5 0.5 z m -1,-2 V 81 H -5.5 -6 v 0.5 0.5 h 0.5 0.5 z m 2,-1 V 80 H -3.5 -4 v 0.5 0.5 h 0.5 0.5 z m -17,-1 V 79 h -0.5 -0.5 v 0.5 0.5 h 0.5 0.5 z m -2,-1 V 78 h -0.5 -0.5 v 0.5 0.5 h 0.5 0.5 z m 19,0 V 78 H -3.5 -4 v 0.5 0.5 h 0.5 0.5 z m -19,-2 V 76 h -0.5 -0.5 v 0.5 0.5 h 0.5 0.5 z m 3,0 V 76 h -0.5 -0.5 v 0.5 0.5 h 0.5 0.5 z m 16,0 V 76 H -3.5 -4 V 75.5 75 H -4.5 -5 v 0.5 0.5 h 0.5 0.5 v 0.5 0.5 h 0.5 0.5 z m -21,-1 V 75 h 0.5 0.5 V 74.5 74 h -0.5 -0.5 v 0.5 0.5 h -0.5 -0.5 v 0.5 0.5 h 0.5 0.5 z m 4,-1 V 74 h -0.5 -0.5 v 0.5 0.5 h 0.5 0.5 z m 5,0 V 74 h -0.5 -0.5 v 0.5 0.5 h 0.5 0.5 z m 8,0 V 74 H -7.5 -8 v 0.5 0.5 h 0.5 0.5 z m -11,-1 V 73 h -0.5 -0.5 v 0.5 0.5 h 0.5 0.5 z m 7,0 V 73 h -0.5 -0.5 v 0.5 0.5 h 0.5 0.5 z m -12,-1 V 72 h 0.5 0.5 v 0.5 0.5 h 0.5 0.5 V 72.5 72 H -21.5 -22 V 71.5 71 h 0.5 0.5 V 70.5 70 h 0.5 0.5 v 0.5 0.5 h 0.5 0.5 V 70.5 70 H -19.5 -20 V 69.5 69 h -0.5 -0.5 v 0.5 0.5 h -0.5 -0.5 v 0.5 0.5 h -0.5 -0.5 v 0.5 0.5 h -0.5 -0.5 v 0.5 0.5 h 0.5 0.5 z m 6,-1 V 71 h -0.5 -0.5 v 0.5 0.5 h 0.5 0.5 z m 2,0 V 71 h -0.5 -0.5 v 0.5 0.5 h 0.5 0.5 z m 2,0 V 71 h -0.5 -0.5 v 0.5 0.5 h 0.5 0.5 z m 2,0 V 71 h -0.5 -0.5 v 0.5 0.5 h 0.5 0.5 z m 2,0 V 71 H -9.5 -10 v 0.5 0.5 h 0.5 0.5 z m 2,0 V 71 H -7.5 -8 v 0.5 0.5 h 0.5 0.5 z m 2,0 V 71 H -5.5 -6 v 0.5 0.5 h 0.5 0.5 z m -11,-2 V 69 h 0.5 0.5 v 0.5 0.5 h 0.5 0.5 V 69.5 69 h 0.5 0.5 v 0.5 0.5 h 0.5 0.5 V 69.5 69 h 0.5 0.5 v 0.5 0.5 h 0.5 0.5 V 69.5 69 H -9.5 -9 V 69.5 70 H -8.5 -8 V 69.5 69 H -7.5 -7 V 69.5 70 H -6.5 -6 V 69.5 69 H -6.5 -7 V 68.5 68 H -7.5 -8 V 68.5 69 H -8.5 -9 V 68.5 68 H -9.5 -10 V 68.5 69 H -10.5 -11 V 68.5 68 H -11.5 -12 V 68.5 69 H -12.5 -13 V 68.5 68 H -13.5 -14 V 68.5 69 H -14.5 -15 V 68.5 68 H -15.5 -16 V 68.5 69 H -16.5 -17 V 68.5 68 h -0.5 -0.5 v 0.5 0.5 h 0.5 0.5 v 0.5 0.5 h 0.5 0.5 z"
         id="path558" /><path
         style="fill:#fecb3f;stroke-width:0.125"
         d="M -43,126.5 V 126 h 4.5 4.5 v -0.5 -0.5 h 1 1 v -1 -1 h 0.5 0.5 v -0.5 -0.5 h 0.5 0.5 v 1 1 h -0.5 -0.5 v 1 1 h -1 -1 v 0.5 0.5 h -5 -5 z m -3,-1 V 125 h 1 1 v 0.5 0.5 h -1 -1 z m -2,-1 V 124 h 0.5 0.5 v 0.5 0.5 h -0.5 -0.5 z m -2,-1 V 123 h 0.5 0.5 v 0.5 0.5 h -0.5 -0.5 z m 21,-2 V 121 h 2.5 2.5 v -0.5 -0.5 h 1 1 v -1 -1 h 0.5 0.5 v -0.5 -0.5 h 0.5 0.5 v 1 1 h -0.5 -0.5 v 1 1 h -1 -1 v 0.5 0.5 h -3 -3 z m -17,-3 V 118 h 0.5 0.5 v -2 -2 h 0.5 0.5 v 2 2 h -0.5 -0.5 v 0.5 0.5 h -0.5 -0.5 z m 3,-3 V 115 h 1.5 1.5 v 0.5 0.5 h -1.5 -1.5 z m 9,0 V 115 h 1 1 v -0.5 -0.5 h 1.5 1.5 v -0.5 -0.5 h 1 1 v -0.5 -0.5 h 0.5 0.5 v -0.5 -0.5 h 0.5 0.5 v -1 -1 h 0.5 0.5 v -1.5 -1.5 h 1 1 v 0.5 0.5 h -0.5 -0.5 v 1.5 1.5 h -0.5 -0.5 v 1 1 h -0.5 -0.5 v 0.5 0.5 h -0.5 -0.5 v 0.5 0.5 h -1 -1 v 0.5 0.5 h -1.5 -1.5 v 0.5 0.5 h -1.5 -1.5 z m 12,0 V 115 h 0.5 0.5 v 0.5 0.5 h -0.5 -0.5 z m -40,-2 V 113 h 0.5 0.5 v -0.5 -0.5 h 1.5 1.5 v -0.5 -0.5 h 0.5 0.5 v 1.5 1.5 h -1 -1 v -0.5 -0.5 h -0.5 -0.5 v 0.5 0.5 h -1 -1 z m 3,-5.5 v -1 h 0.5 0.5 v -1 -1 h 0.5 0.5 v -1 -1 h 0.5 0.5 v -1 -1 h 0.5 0.5 v -1 -1 h 0.5 0.5 v -1 -1 h 0.5 0.5 v -1 -1 h 0.5 0.5 v -1 -1 h 0.5 0.5 v -1 -1 h 0.5 0.5 v 1 1 h -0.5 -0.5 v 1 1 h -0.5 -0.5 v 1 1 h -0.5 -0.5 v 1 1 h -0.5 -0.5 v 1 1 h -0.5 -0.5 v 1 1 h -0.5 -0.5 v 1 1 h -0.5 -0.5 v 1 1 h -0.5 -0.5 v 1 1 h -0.5 -0.5 z m 3,-0.5 V 107 h 0.5 0.5 v 0.5 0.5 h -0.5 -0.5 z m 33,-4 V 102 h 0.5 0.5 v 1.5 1.5 h -0.5 -0.5 z m -2,-3 V 100 h -1 -1 V 99.5 99 H -27.5 -28 V 98.5 98 h 0.5 0.5 v 0.5 0.5 h 1 1 v 0.5 0.5 h 2 2 V 99.5 99 h 1 1 v -1 -1 h 0.5 0.5 V 96.5 96 h 0.5 0.5 v 1 1 h -0.5 -0.5 v 1 1 h -1 -1 v 0.5 0.5 h -2.5 -2.5 z m 6,-6 V 94 h 0.5 0.5 v 0.5 0.5 h -0.5 -0.5 z"
         id="path556" /><path
         style="fill:#fefe00;stroke-width:0.125"
         d="M -45,126.5 V 126 h 0.5 0.5 v -0.5 -0.5 h -1 -1 v 0.5 0.5 h -1 -1 v -0.5 -0.5 h -1 -1 v -0.5 -0.5 h -1 -1 v -0.5 -0.5 h -0.5 -0.5 v -2.5 -2.5 h 0.5 0.5 v -0.5 -0.5 h 0.5 0.5 v -0.5 -0.5 h 2 2 v 0.5 0.5 h 0.5 0.5 v -1.5 -1.5 h -0.5 -0.5 v 0.5 0.5 h -1.5 -1.5 v -0.5 -0.5 h -1 -1 v -0.5 -0.5 h -0.5 -0.5 v -0.5 -0.5 h -0.5 -0.5 v -0.5 -0.5 h -0.5 -0.5 v -1 -1 h -0.5 -0.5 v -0.5 -0.5 h 0.5 0.5 v -0.5 -0.5 h -0.5 -0.5 v -1 -1 h 0.5 0.5 v -1 -1 h 0.5 0.5 v -1 -1 h 0.5 0.5 v -1 -1 h 0.5 0.5 v -1 -1 h 0.5 0.5 v -1 -1 h 0.5 0.5 v -1 -1 h 0.5 0.5 v -1 -1 h -1 -1 v 1 1 h -0.5 -0.5 v 1 1 h -0.5 -0.5 v 1 1 h -0.5 -0.5 v 1 1 h -0.5 -0.5 v 1 1 h -0.5 -0.5 v 1 1 h -0.5 -0.5 v 1 1 h -0.5 -0.5 v 1 1 h -0.5 -0.5 v 1.5 1.5 h 0.5 0.5 v 1 1 h -1.5 -1.5 v 0.5 0.5 h -1 -1 v -2 -2 h 1 1 v -0.5 -0.5 h 0.5 0.5 v -0.5 -0.5 h 0.5 0.5 v -1 -1 h 0.5 0.5 v -1 -1 h 0.5 0.5 v -1 -1 H -57.5 -58 V 94.5 88 h 0.5 0.5 V 86.5 85 h 0.5 0.5 v -1 -1 h 0.5 0.5 v -1 -1 h 0.5 0.5 V 80.5 80 h 0.5 0.5 v -1 -1 h 0.5 0.5 V 77.5 77 h 0.5 0.5 V 76.5 76 h 0.5 0.5 V 75.5 75 h 1 1 V 74.5 74 h 1 1 V 73.5 73 h 1 1 V 72.5 72 h 3 3 v 1 1 h 0.5 0.5 V 73.5 73 h 3 3 v 0.5 0.5 h 0.5 0.5 V 73.5 73 h 1 1 v 0.5 0.5 h 0.5 0.5 v 0.5 0.5 h -1 -1 v 0.5 0.5 h -1 -1 V 75.5 75 H -31.5 -32 V 74.5 74 h -1.5 -1.5 v 0.5 0.5 h -1 -1 v 0.5 0.5 h -0.5 -0.5 v 0.5 0.5 h -0.5 -0.5 v 1 1 h -0.5 -0.5 v 4.5 4.5 h 0.5 0.5 v 1.5 1.5 h 0.5 0.5 v 1 1 h 1 1 v 0.5 0.5 h 3.5 3.5 V 93.5 93 h 1 1 V 92.5 92 h 1 1 V 91.5 91 h 3 3 v 0.5 0.5 h 0.5 0.5 v 1 1 h 0.5 0.5 v 1 1 h -0.5 -0.5 v 0.5 0.5 h -0.5 -0.5 v 1 1 h -1 -1 v 0.5 0.5 h -2 -2 V 99.5 99 h -1 -1 V 98.5 98 h -0.5 -0.5 v 1 1 h 0.5 0.5 v 0.5 0.5 h 1 1 v 0.5 0.5 h 1 1 v 1.5 1.5 h -0.5 -0.5 v 0.5 0.5 h -4.5 -4.5 v -0.5 -0.5 h -1 -1 v -0.5 -0.5 h -0.5 -0.5 v -0.5 -0.5 h -0.5 -0.5 v -1 -1 h -0.5 -0.5 v 1 1 h -0.5 -0.5 v 3.5 3.5 h 0.5 0.5 v 0.5 0.5 h 0.5 0.5 v 0.5 0.5 h 1 1 v -0.5 -0.5 h 0.5 0.5 v -0.5 -0.5 h 0.5 0.5 v -0.5 -0.5 h 0.5 0.5 v -0.5 -0.5 h 0.5 0.5 v -0.5 -0.5 h 3.5 3.5 v 1 1 h -0.5 -0.5 v 1 1 h -0.5 -0.5 v 0.5 0.5 h -0.5 -0.5 v 0.5 0.5 h -1 -1 v 0.5 0.5 h -1.5 -1.5 v 0.5 0.5 h -5.5 -5.5 v -0.5 -0.5 h -0.5 -0.5 v -0.5 -0.5 h -0.5 -0.5 v 2.5 2.5 h -0.5 -0.5 v 0.5 0.5 h 1 1 v -0.5 -0.5 h 0.5 0.5 v -0.5 -0.5 h 1.5 1.5 v -0.5 -0.5 h 3 3 v 0.5 0.5 h 1.5 1.5 v -0.5 -0.5 h 1.5 1.5 v -0.5 -0.5 h 1 1 v -0.5 -0.5 h 0.5 0.5 v -0.5 -0.5 h 2 2 v 1 1 h 0.5 0.5 v 1 1 h -0.5 -0.5 v 0.5 0.5 h -0.5 -0.5 v 1 1 h -1 -1 v 0.5 0.5 h -2.5 -2.5 v -1 -1 h -0.5 -0.5 v 1.5 1.5 h -0.5 -0.5 v 0.5 0.5 h -0.5 -0.5 v 1 1 h -1 -1 v 0.5 0.5 h -4.5 -4.5 v 0.5 0.5 h -1 -1 z m -2,-2 V 124 h -0.5 -0.5 v 0.5 0.5 h 0.5 0.5 z m -2,-1 V 123 h -0.5 -0.5 v 0.5 0.5 h 0.5 0.5 z m 19,-5.5 v -1 h -0.5 -0.5 v 1 1 h 0.5 0.5 z m -17,-0.5 V 117 h -0.5 -0.5 v 0.5 0.5 h 0.5 0.5 z m 26,-2 V 115 h -0.5 -0.5 v 0.5 0.5 h 0.5 0.5 z m -26,-2 V 113 h -0.5 -0.5 v 0.5 0.5 h 0.5 0.5 z M -56,100 v -1 h 0.5 0.5 v -1 -1 h 0.5 0.5 v -1 -1 h 0.5 0.5 v -1 -1 h 0.5 0.5 v -1 -1 h 0.5 0.5 v -1 -1 h -0.5 -0.5 v 1 1 h -0.5 -0.5 v 1 1 h -0.5 -0.5 v 1 1 h -0.5 -0.5 v 1 1 h -0.5 -0.5 v 1 1 h -0.5 -0.5 v 1 1 h 0.5 0.5 z m 38,-5.5 V 94 h -0.5 -0.5 v 0.5 0.5 h 0.5 0.5 z"
         id="path554" /><path
         style="fill:#fe00fe;stroke-width:0.125"
         d="M -17,106.5 V 106 h 0.5 0.5 v 0.5 0.5 h -0.5 -0.5 z m 0,-2 V 104 h 0.5 0.5 v 0.5 0.5 h -0.5 -0.5 z m 1,-6 V 97 h 0.5 0.5 v 1.5 1.5 h -0.5 -0.5 z m 0,-3 V 95 h 0.5 0.5 v 0.5 0.5 h -0.5 -0.5 z m -1,-2 V 93 h 0.5 0.5 v 0.5 0.5 h -0.5 -0.5 z m 0,-3 V 90 h 0.5 0.5 v 0.5 0.5 h -0.5 -0.5 z m -4,-1 V 89 h 0.5 0.5 v 0.5 0.5 h -0.5 -0.5 z m 2,-1 V 88 h 0.5 0.5 v 0.5 0.5 h -0.5 -0.5 z m -2,-2 V 86 h 0.5 0.5 v 0.5 0.5 h -0.5 -0.5 z m 0,-3 V 83 h 0.5 0.5 v 0.5 0.5 h -0.5 -0.5 z m -2,-3 V 80 h 0.5 0.5 v 0.5 0.5 h -0.5 -0.5 z m 2,-1 V 79 h 0.5 0.5 v 0.5 0.5 h -0.5 -0.5 z m -2,-1 V 78 h 0.5 0.5 v 0.5 0.5 h -0.5 -0.5 z m 0,-2 V 76 h 0.5 0.5 v 0.5 0.5 h -0.5 -0.5 z m 3,0 V 76 h 0.5 0.5 v 0.5 0.5 h -0.5 -0.5 z m -5,-1 V 75 H -25.5 -26 V 74 73 H -26.5 -27 V 72.5 72 h 0.5 0.5 V 71.5 71 h 0.5 0.5 V 70.5 70 h 0.5 0.5 V 69.5 69 h 0.5 0.5 V 68.5 68 h 0.5 0.5 V 67.5 67 h 0.5 0.5 V 66.5 66 h 0.5 0.5 v 0.5 0.5 h 0.5 0.5 V 66.5 66 h 0.5 0.5 V 65.5 65 h 0.5 0.5 v 0.5 0.5 h 0.5 0.5 V 65.5 65 h 0.5 0.5 v 0.5 0.5 h 0.5 0.5 V 65.5 65 h 0.5 0.5 v 0.5 0.5 h 0.5 0.5 V 65.5 65 h 0.5 0.5 v 0.5 0.5 h 1.5 1.5 v 1 1 H -7.5 -7 V 67.5 67 H -6.5 -6 V 67.5 68 H -5.5 -5 V 68.5 69 H -5.5 -6 V 69.5 70 H -6.5 -7 V 69.5 69 H -7.5 -8 V 69.5 70 H -8.5 -9 V 69.5 69 H -9.5 -10 V 69.5 70 H -10.5 -11 V 69.5 69 H -11.5 -12 V 69.5 70 H -12.5 -13 V 69.5 69 H -13.5 -14 V 69.5 70 H -14.5 -15 V 69.5 69 H -15.5 -16 V 69.5 70 H -16.5 -17 V 69.5 69 H -17.5 -18 V 68.5 68 h -0.5 -0.5 v 0.5 0.5 h -0.5 -0.5 v 0.5 0.5 h 0.5 0.5 V 70.5 71 H -19.5 -20 V 70.5 70 h -0.5 -0.5 v 0.5 0.5 h -0.5 -0.5 v 0.5 0.5 h 0.5 0.5 V 72.5 73 H -21.5 -22 V 72.5 72 h -0.5 -0.5 v 0.5 0.5 h -0.5 -0.5 v 0.5 0.5 h 0.5 0.5 v 0.5 0.5 h -0.5 -0.5 v 0.5 0.5 h -0.5 -0.5 z m 1,-1 V 74 h -0.5 -0.5 v 0.5 0.5 h 0.5 0.5 z m 0,-2 V 72 h 0.5 0.5 V 71.5 71 h 0.5 0.5 V 70.5 70 h 0.5 0.5 V 69.5 69 h 0.5 0.5 v -1 -1 h -0.5 -0.5 v 1 1 h -0.5 -0.5 v 0.5 0.5 h -0.5 -0.5 v 0.5 0.5 h -0.5 -0.5 v 0.5 0.5 h -1 -1 v 0.5 0.5 h 1 1 z m 8,-4 V 68 h 0.5 0.5 v 0.5 0.5 h 0.5 0.5 V 68.5 68 h 0.5 0.5 v 0.5 0.5 h 0.5 0.5 V 68.5 68 h 0.5 0.5 v 0.5 0.5 h 0.5 0.5 V 68.5 68 H -9.5 -9 V 68.5 69 H -8.5 -8 V 68.5 68 H -8.5 -9 V 67.5 67 H -9.5 -10 V 67.5 68 H -10.5 -11 V 67.5 67 H -11.5 -12 V 67.5 68 H -12.5 -13 V 67.5 67 H -13.5 -14 V 67.5 68 H -14.5 -15 V 67.5 67 h -0.5 -0.5 v 0.5 0.5 h -0.5 -0.5 v -1 -1 h -0.5 -0.5 v 1 1 h 0.5 0.5 v 0.5 0.5 h 0.5 0.5 z m 10,0 V 68 H -6.5 -7 v 0.5 0.5 h 0.5 0.5 z m -15,6 V 74 h 0.5 0.5 v 0.5 0.5 h -0.5 -0.5 z m 5,0 V 74 h 0.5 0.5 v 0.5 0.5 h -0.5 -0.5 z m 8,0 V 74 H -7.5 -7 V 74.5 75 H -7.5 -8 Z m -11,-1 V 73 h 0.5 0.5 v 0.5 0.5 h -0.5 -0.5 z m 7,0 V 73 h 0.5 0.5 v 0.5 0.5 h -0.5 -0.5 z m 8,0 V 73 H -3.5 -3 V 73.5 74 H -3.5 -4 Z m -14,-2 V 71 h 0.5 0.5 v 0.5 0.5 h -0.5 -0.5 z m 2,0 V 71 h 0.5 0.5 v 0.5 0.5 h -0.5 -0.5 z m 2,0 V 71 h 0.5 0.5 v 0.5 0.5 h -0.5 -0.5 z m 2,0 V 71 h 0.5 0.5 v 0.5 0.5 h -0.5 -0.5 z m 2,0 V 71 H -9.5 -9 V 71.5 72 H -9.5 -10 Z m 2,0 V 71 H -7.5 -7 V 71.5 72 H -7.5 -8 Z m 2,0 V 71 H -5.5 -5 V 71.5 72 H -5.5 -6 Z"
         id="path552" /><path
         style="fill:#fe0000;stroke-width:0.125"
         d="M -36,109.5 V 109 h -0.5 -0.5 v -1 -1 h 0.5 0.5 v -0.5 -0.5 h 0.5 0.5 v 0.5 0.5 h 0.5 0.5 v 1 1 h -0.5 -0.5 v 0.5 0.5 h -0.5 -0.5 z"
         id="path550" /><path
         style="fill:#0000fe;stroke-width:0.125"
         d="M -13,106.5 V 106 h 0.5 0.5 v 0.5 0.5 h -0.5 -0.5 z m 0,-2 V 104 h 0.5 0.5 v 0.5 0.5 h -0.5 -0.5 z m -1,-6 V 97 h 0.5 0.5 V 96 95 H -13.5 -14 V 94.5 94 h 0.5 0.5 V 93.5 93 h 0.5 0.5 V 92.5 92 h 0.5 0.5 V 91.5 91 h 0.5 0.5 V 90.5 90 H -9.5 -9 V 89.5 89 H -8.5 -8 V 88.5 88 H -7.5 -7 V 87.5 87 H -6.5 -6 V 86.5 86 H -5.5 -5 V 85.5 85 H -4.5 -4 V 84.5 84 H -4.5 -5 V 83.5 83 H -4.5 -4 V 82.5 82 H -3.5 -3 V 81.5 81 H -3.5 -4 V 80.5 80 H -3.5 -3 V 79.5 79 H -3.5 -4 V 78.5 78 H -3.5 -3 V 77.5 77 H -3.5 -4 V 76.5 76 H -4.5 -5 V 75.5 75 H -4.5 -4 V 75.5 76 H -3.5 -3 V 74.5 73 H -3.5 -4 V 72.5 72 h 1 1 V 73.5 75 H -1.5 -1 V 78.5 82 H -1.5 -2 V 83.5 85 H -2.5 -3 v 1 1 H -3.5 -4 V 87.5 88 H -4.5 -5 V 88.5 89 H -5.5 -6 V 89.5 90 H -6.5 -7 V 90.5 91 H -7.5 -8 V 91.5 92 H -8.5 -9 V 92.5 93 H -9.5 -10 v 0.5 0.5 h -0.5 -0.5 v 0.5 0.5 h -0.5 -0.5 v 1 1 h -0.5 -0.5 v 1.5 1.5 h -0.5 -0.5 z m 2,-4 V 94 h 0.5 0.5 V 93.5 93 h 0.5 0.5 V 92.5 92 H -9.5 -9 V 91.5 91 H -8.5 -8 V 90.5 90 H -7.5 -7 V 89.5 89 H -6.5 -6 V 88.5 88 H -5.5 -5 V 87.5 87 H -4.5 -4 V 86.5 86 H -4.5 -5 V 86.5 87 H -5.5 -6 V 87.5 88 H -6.5 -7 V 88.5 89 H -7.5 -8 V 89.5 90 H -8.5 -9 V 90.5 91 H -9.5 -10 v 0.5 0.5 h -0.5 -0.5 v 0.5 0.5 h -0.5 -0.5 v 0.5 0.5 h -0.5 -0.5 v 0.5 0.5 h 0.5 0.5 z m 9,-11 V 83 H -3.5 -4 v 0.5 0.5 h 0.5 0.5 z m 1,-3 V 80 H -2.5 -3 v 0.5 0.5 h 0.5 0.5 z m 0,-2 V 78 H -2.5 -3 v 0.5 0.5 h 0.5 0.5 z m 0,-2 V 76 H -2.5 -3 v 0.5 0.5 h 0.5 0.5 z m -7,10 V 86 H -8.5 -8 V 86.5 87 H -8.5 -9 Z m 2,-2 V 84 H -6.5 -6 V 84.5 85 H -6.5 -7 Z m 1,-3 V 81 H -5.5 -5 V 81.5 82 H -5.5 -6 Z m 2,-11 V 70 H -4.5 -5 V 69.5 69 H -4.5 -4 V 69.5 70 H -3.5 -3 V 70.5 71 H -3.5 -4 Z"
         id="path548" /><path
         style="fill:#000000;stroke-width:0.125"
         d="M -45,127.5 V 127 h -1.5 -1.5 v -0.5 -0.5 h -1 -1 v -0.5 -0.5 h -1 -1 v -0.5 -0.5 h -0.5 -0.5 v -0.5 -0.5 h -0.5 -0.5 v -2.5 -2.5 h 0.5 0.5 v -0.5 -0.5 h 0.5 0.5 v -0.5 -0.5 h 0.5 0.5 v -0.5 -0.5 h -0.5 -0.5 v -0.5 -0.5 h -0.5 -0.5 v -0.5 -0.5 h -0.5 -0.5 v -0.5 -0.5 h -0.5 -0.5 v -0.5 -0.5 h -0.5 -0.5 v 1.5 1.5 h -0.5 -0.5 v 0.5 0.5 h -1 -1 v -0.5 -0.5 h -0.5 -0.5 v 0.5 0.5 h -1 -1 v -0.5 -0.5 h -0.5 -0.5 v -0.5 -0.5 h -0.5 -0.5 v -2 -2 h 0.5 0.5 v -0.5 -0.5 h 1 1 v -0.5 -0.5 h 0.5 0.5 v -1 -1 h 0.5 0.5 V 96.5 88 h 0.5 0.5 V 86.5 85 h 0.5 0.5 v -1 -1 h 0.5 0.5 v -1 -1 h 0.5 0.5 V 80.5 80 h 0.5 0.5 v -1 -1 h 0.5 0.5 V 77.5 77 h 0.5 0.5 V 76.5 76 h 0.5 0.5 V 75.5 75 h 0.5 0.5 V 74.5 74 h 1 1 V 73.5 73 h 1 1 V 72.5 72 h 1 1 V 71.5 71 h 3 3 V 70.5 70 h 0.5 0.5 V 69.5 69 h 0.5 0.5 V 68.5 68 h 1.5 1.5 v 0.5 0.5 h 0.5 0.5 v 1.5 1.5 h 0.5 0.5 v -1 -1 h 0.5 0.5 V 69.5 69 h 0.5 0.5 V 68.5 68 h 1 1 v 0.5 0.5 h 1 1 V 68.5 68 h 0.5 0.5 V 67.5 67 h 0.5 0.5 V 66.5 66 h 1 1 V 65.5 65 h 1.5 1.5 V 64.5 64 h 3.5 3.5 v 0.5 0.5 h 1.5 1.5 v 0.5 0.5 h 1 1 v 0.5 0.5 h 0.5 0.5 v 0.5 0.5 h 0.5 0.5 v 0.5 0.5 h 0.5 0.5 v 0.5 0.5 h 0.5 0.5 v 1 1 H -1.5 -1 V 73.5 75 H -0.5 0 V 78.5 82 H -0.5 -1 V 83.5 85 H -1.5 -2 v 1 1 H -2.5 -3 V 87.5 88 H -3.5 -4 V 88.5 89 H -4.5 -5 V 89.5 90 H -5.5 -6 V 90.5 91 H -6.5 -7 V 91.5 92 H -7.5 -8 V 92.5 93 H -8.5 -9 V 93.5 94 H -9.5 -10 v 0.5 0.5 h -0.5 -0.5 v 1 1 h -0.5 -0.5 v 1.5 1.5 h -0.5 -0.5 v 1.5 1.5 h 0.5 0.5 v 0.5 0.5 h 0.5 0.5 v 1.5 1.5 h -0.5 -0.5 v 0.5 0.5 h -1 -1 v 10 10 h -0.5 -0.5 v -10 -10 h -1 -1 v -0.5 -0.5 h -0.5 -0.5 v -1.5 -1.5 h 0.5 0.5 v -0.5 -0.5 h 0.5 0.5 v -1.5 -1.5 h -1 -1 v 0.5 0.5 h -1 -1 v 0.5 0.5 h -0.5 -0.5 v 2.5 2.5 h -0.5 -0.5 v 1.5 1.5 h -0.5 -0.5 v 1 1 h 1 1 v 0.5 0.5 h 0.5 0.5 v 1 1 h 0.5 0.5 v 2 2 h -0.5 -0.5 v 1 1 h -0.5 -0.5 v 0.5 0.5 h -1 -1 v 0.5 0.5 h -3 -3 v 0.5 0.5 h -0.5 -0.5 v 1 1 h -0.5 -0.5 v 0.5 0.5 h -1 -1 v 0.5 0.5 h -6 -6 z m 12,-1 V 126 h 1 1 v -1 -1 h 0.5 0.5 v -2.5 -2.5 h 0.5 0.5 v 1.5 1.5 h 3 3 v -0.5 -0.5 h 1 1 v -1 -1 h 0.5 0.5 v -2 -2 h -0.5 -0.5 v -1 -1 h -2 -2 v -0.5 -0.5 h 0.5 0.5 v -1 -1 h 0.5 0.5 v -1.5 -1.5 h 0.5 0.5 v -0.5 -0.5 h -1 -1 v -0.5 -0.5 h 1 1 v -1.5 -1.5 h -1.5 -1.5 v -0.5 -0.5 h 2.5 2.5 v -0.5 -0.5 h 1 1 v -1 -1 h 0.5 0.5 v -2 -2 h 0.5 0.5 v 3 3 h 0.5 0.5 v 2 2 h -1 -1 v 0.5 0.5 h 1 1 v -0.5 -0.5 h 0.5 0.5 v 0.5 0.5 h 1 1 v -0.5 -0.5 h -1 -1 v -2 -2 h 0.5 0.5 V 98.5 97 h 0.5 0.5 v -1 -1 h 0.5 0.5 V 94.5 94 h 0.5 0.5 V 93.5 93 H -9.5 -9 V 92.5 92 H -8.5 -8 V 91.5 91 H -7.5 -7 V 90.5 90 H -6.5 -6 V 89.5 89 H -5.5 -5 V 88.5 88 H -4.5 -4 V 87.5 87 H -3.5 -3 V 86 85 H -2.5 -2 V 83.5 82 H -1.5 -1 V 78.5 75 H -1.5 -2 V 73.5 72 H -2.5 -3 V 71 70 H -3.5 -4 V 69.5 69 H -4.5 -5 V 68.5 68 H -5.5 -6 V 67.5 67 H -7 -8 V 66.5 66 H -9.5 -11 V 65.5 65 h -3.5 -3.5 v 0.5 0.5 h -1.5 -1.5 v 0.5 0.5 h -1 -1 v 0.5 0.5 h -0.5 -0.5 v 0.5 0.5 h -0.5 -0.5 v 0.5 0.5 h -0.5 -0.5 v 1 1 h -0.5 -0.5 v 1 1 H -27.5 -28 V 73.5 73 h -1 -1 V 73.5 74 H -30.5 -31 V 73.5 73 h -3 -3 v 0.5 0.5 h -0.5 -0.5 v -1 -1 h -3 -3 v 0.5 0.5 h -1 -1 v 0.5 0.5 h -1 -1 v 0.5 0.5 h -1 -1 v 0.5 0.5 h -0.5 -0.5 v 0.5 0.5 h -0.5 -0.5 v 0.5 0.5 h -0.5 -0.5 v 1 1 h -0.5 -0.5 v 0.5 0.5 h -0.5 -0.5 v 1 1 h -0.5 -0.5 v 1 1 h -0.5 -0.5 v 1.5 1.5 h -0.5 -0.5 v 6.5 6.5 h 0.5 0.5 v 1 1 h -0.5 -0.5 v 1 1 h -0.5 -0.5 v 1 1 h -0.5 -0.5 v 0.5 0.5 h -0.5 -0.5 v 0.5 0.5 h -1 -1 v 2 2 h 0.5 0.5 v 0.5 0.5 h 1 1 v -0.5 -0.5 h 0.5 0.5 v 0.5 0.5 h 1 1 v -1.5 -1.5 h 0.5 0.5 v -1 -1 h 0.5 0.5 v 1 1 h 0.5 0.5 v 0.5 0.5 h 0.5 0.5 v 0.5 0.5 h 0.5 0.5 v 0.5 0.5 h 1 1 v 0.5 0.5 h 1.5 1.5 v -0.5 -0.5 h 0.5 0.5 v 1.5 1.5 h -0.5 -0.5 v -0.5 -0.5 h -2 -2 v 0.5 0.5 h -0.5 -0.5 v 0.5 0.5 h -0.5 -0.5 v 2.5 2.5 h 0.5 0.5 v 0.5 0.5 h 1 1 v 0.5 0.5 h 1 1 v 0.5 0.5 h 1.5 1.5 v 0.5 0.5 h 6 6 z m -12,-8 V 118 h 0.5 0.5 v -2 -2 h -0.5 -0.5 v -0.5 -0.5 h 0.5 0.5 v 0.5 0.5 h 0.5 0.5 v 1 1 h 1.5 1.5 v -0.5 -0.5 h 3 3 v 0.5 0.5 h 1.5 1.5 v -0.5 -0.5 h 1.5 1.5 v -0.5 -0.5 h 1 1 v -0.5 -0.5 h 0.5 0.5 v 0.5 0.5 h -0.5 -0.5 v 0.5 0.5 h -1 -1 v 0.5 0.5 h -1.5 -1.5 v 0.5 0.5 h 0.5 0.5 v 1 1 h -0.5 -0.5 v -1 -1 h -1.5 -1.5 v -0.5 -0.5 h -3 -3 v 0.5 0.5 h -1.5 -1.5 v 0.5 0.5 h -0.5 -0.5 v 0.5 0.5 h -0.5 -0.5 z m -3,-1 V 117 h 0.5 0.5 v 0.5 0.5 h -0.5 -0.5 z m 0,-4 V 113 h 0.5 0.5 v 0.5 0.5 h -0.5 -0.5 z m 11,-2 V 111 h -0.5 -0.5 v -0.5 -0.5 h -0.5 -0.5 v -3.5 -3.5 h 0.5 0.5 v -1 -1 h 0.5 0.5 v 1 1 h 0.5 0.5 v 0.5 0.5 h 0.5 0.5 v 0.5 0.5 h 1 1 v 0.5 0.5 h 4.5 4.5 v 0.5 0.5 h -3.5 -3.5 v 0.5 0.5 h -0.5 -0.5 v 0.5 0.5 h -0.5 -0.5 v 0.5 0.5 h -0.5 -0.5 v 0.5 0.5 h -0.5 -0.5 v 0.5 0.5 h -1 -1 z m 2,-2 V 109 h 0.5 0.5 v -1 -1 h -0.5 -0.5 v -0.5 -0.5 h -0.5 -0.5 v 0.5 0.5 h -0.5 -0.5 v 1 1 h 0.5 0.5 v 0.5 0.5 h 0.5 0.5 z m -23,1 V 110 h -0.5 -0.5 v -0.5 -0.5 h 0.5 0.5 v -1 -1 h 0.5 0.5 v -1 -1 h 0.5 0.5 v -1 -1 h 0.5 0.5 v -1 -1 h 0.5 0.5 v -1 -1 h 0.5 0.5 v -1 -1 h 0.5 0.5 v -1 -1 h 0.5 0.5 v -1 -1 h 0.5 0.5 v -1 -1 h 0.5 0.5 v 1 1 h -0.5 -0.5 v 1 1 h -0.5 -0.5 v 1 1 h -0.5 -0.5 v 1 1 h -0.5 -0.5 v 1 1 h -0.5 -0.5 v 1 1 h -0.5 -0.5 v 1 1 h -0.5 -0.5 v 2 2 h -1 -1 v 0.5 0.5 h 0.5 0.5 v 0.5 0.5 h -0.5 -0.5 z m 1,-10.5 v -1 h 0.5 0.5 v -1 -1 h 0.5 0.5 v -1 -1 h 0.5 0.5 v -1 -1 h 0.5 0.5 v -1 -1 h 0.5 0.5 v -1 -1 h 0.5 0.5 v 1 1 h -0.5 -0.5 v 1 1 h -0.5 -0.5 v 1 1 h -0.5 -0.5 v 1 1 h -0.5 -0.5 v 1 1 h -0.5 -0.5 v 1 1 h -0.5 -0.5 z m 30,0.5 V 100 H -27.5 -28 V 99.5 99 h 0.5 0.5 v 0.5 0.5 h 1 1 v 0.5 0.5 h -1 -1 z m -9,-7 V 93 h -1 -1 V 92 91 H -38.5 -39 V 89.5 88 H -39.5 -40 V 83.5 79 h 0.5 0.5 v -1 -1 h 0.5 0.5 V 76.5 76 h 0.5 0.5 V 75.5 75 h 1 1 V 74.5 74 h 1.5 1.5 v 0.5 0.5 h 0.5 0.5 v 0.5 0.5 h 1 1 V 75.5 75 h 1 1 V 74.5 74 h 0.5 0.5 v 1 1 h 0.5 0.5 v 0.5 0.5 h 0.5 0.5 v 1 1 h 0.5 0.5 v 1 1 h 0.5 0.5 v 1.5 1.5 h 0.5 0.5 v 3 3 h 1 1 v 0.5 0.5 h 0.5 0.5 v 0.5 0.5 h 0.5 0.5 v 1 1 H -17.5 -18 V 93 92 H -18.5 -19 V 91.5 91 h -3 -3 v 0.5 0.5 h -1 -1 v 0.5 0.5 h -1 -1 v 0.5 0.5 h -3.5 -3.5 z m 6,-3 V 90 h 0.5 0.5 V 89 88 H -29.5 -30 V 87.5 87 h -1 -1 v 0.5 0.5 h -0.5 -0.5 v 1 1 h 0.5 0.5 v 0.5 0.5 h 1 1 z m 3,-1 V 88 h 0.5 0.5 v -1 -1 h 0.5 0.5 V 85.5 85 h 0.5 0.5 V 84.5 84 h 0.5 0.5 V 82.5 81 H -23.5 -24 V 80 79 H -24.5 -25 V 78 77 H -25.5 -26 V 76.5 76 h -1.5 -1.5 v 0.5 0.5 h -1 -1 V 76.5 76 h -1 -1 V 75.5 75 h -1 -1 v 0.5 0.5 h -1 -1 v 0.5 0.5 h -0.5 -0.5 v 1 1 h -0.5 -0.5 v 4.5 4.5 h 0.5 0.5 v 0.5 0.5 h 0.5 0.5 v -1 -1 h 0.5 0.5 V 86.5 86 h 0.5 0.5 V 85.5 85 h 1 1 V 84.5 84 h 2 2 v 0.5 0.5 h 0.5 0.5 v 3 3 h 0.5 0.5 z m 5,-1 V 87 h -1 -1 v 0.5 0.5 h -0.5 -0.5 v 1 1 h 1.5 1.5 z m 10,18 V 106 h -2.5 -2.5 v 0.5 0.5 h 2.5 2.5 z"
         id="path546" /><path
         d="M -32,90.5 V 90 h -0.5 -0.5 v -1 -1 h 0.5 0.5 V 87.5 87 h 1 1 v 0.5 0.5 h 0.5 0.5 v 1 1 h -0.5 -0.5 v 0.5 0.5 h -1 -1 z M -28,88 V 85 H -28.5 -29 V 84.5 84 h -2 -2 v 0.5 0.5 h -1 -1 v 0.5 0.5 h -0.5 -0.5 v 0.5 0.5 h -0.5 -0.5 v 1 1 H -37.5 -38 V 88.5 88 H -38.5 -39 V 83.5 79 h 0.5 0.5 v -1 -1 h 0.5 0.5 V 76.5 76 h 1 1 V 75.5 75 h 1 1 v 0.5 0.5 h 1 1 v 0.5 0.5 h 1 1 V 76.5 76 h 1.5 1.5 v 0.5 0.5 h 0.5 0.5 v 1 1 h 0.5 0.5 v 1 1 h 0.5 0.5 v 1.5 1.5 h -0.5 -0.5 v 0.5 0.5 h -0.5 -0.5 v 0.5 0.5 h -0.5 -0.5 v 1 1 h -0.5 -0.5 v 1.5 1.5 h -0.5 -0.5 z m 3,1 v -1 h 0.5 0.5 V 87.5 87 h 1 1 v 1.5 1.5 h -1.5 -1.5 z"
         style="fill:#fefefe;stroke-width:0.125"
         id="path1091" /><path
         d="m -23,67 h 0.5 0.5 V 67.5 68 H -22.5 -23 V 68.5 69 H -23.5 -24 V 69.5 70 H -24.5 -25 V 70.5 71 H -25.5 -26 V 70.5 70 h 0.5 0.5 V 69.5 69 m 1,-0.5 V 68 h 0.5 0.5 V 67.5 67 l -1,1 -1,1 h 0.5 0.5 z m -3,5 V 73 h 0.5 0.5 V 72.5 72 h 0.5 0.5 v 0.5 0.5 h -0.5 -0.5 v 0.5 0.5 h -0.5 -0.5 z m 6,-6 V 67 h 0.5 0.5 V 66.5 66 h 0.5 0.5 v 0.5 0.5 h -0.5 -0.5 v 0.5 0.5 h -0.5 -0.5 z m 3,-1 V 66 h 0.5 0.5 V 65.5 65 h 0.5 0.5 v 0.5 0.5 h -0.5 -0.5 v 0.5 0.5 h -0.5 -0.5 z m 3,-1 V 65 h 0.5 0.5 v 0.5 0.5 h -0.5 -0.5 z m 2,0 V 65 h 0.5 0.5 v 0.5 0.5 h -0.5 -0.5 z"
         style="fill:#fefefe;stroke-width:0.125"
         id="path1154" /></g></g></svg>
